<svg xmlns="http://www.w3.org/2000/svg" viewBox="0 0 32 32">
  <!-- Background -->
  <rect x="0" y="0" width="32" height="32" rx="6" fill="#0f172a"/>

  <!-- Flame outer -->
  <path d="M13 22 C12 26 13 30 16 30 C19 30 20 26 19 22 Z" fill="#f97316"/>
  <!-- Flame inner -->
  <path d="M14.5 22 C14 25 14.5 28 16 28 C17.5 28 18 25 17.5 22 Z" fill="#fef08a"/>

  <!-- Left fin -->
  <polygon points="11,16 7,24 11,22" fill="#3b82f6"/>
  <!-- Right fin -->
  <polygon points="21,16 25,24 21,22" fill="#3b82f6"/>

  <!-- Rocket body -->
  <path d="M11 14 C11 8 13 3 16 3 C19 3 21 8 21 14 L21 22 L11 22 Z" fill="#f1f5f9"/>

  <!-- Window -->
  <circle cx="16" cy="15" r="3.5" fill="#bfdbfe" stroke="#2563eb" stroke-width="1.5"/>

  <!-- Body panel line -->
  <line x1="11" y1="18" x2="21" y2="18" stroke="#cbd5e1" stroke-width="0.5"/>
</svg>
